<?xml version="1.0" encoding="utf-8"?>
<!-- Generator: Adobe Illustrator 16.0.0, SVG Export Plug-In . SVG Version: 6.00 Build 0)  -->
<!DOCTYPE svg PUBLIC "-//W3C//DTD SVG 1.1//EN" "http://www.w3.org/Graphics/SVG/1.1/DTD/svg11.dtd">
<svg version="1.1" id="Filled_Version" xmlns="http://www.w3.org/2000/svg" xmlns:xlink="http://www.w3.org/1999/xlink" x="0px"
	 y="0px" width="100%" height="100%" viewBox="0 0 24 24" enable-background="new 0 0 24 24" xml:space="preserve">
<path d="M20.854,6.146l-6-6C14.76,0.053,14.633,0,14.5,0h-11C3.225,0,3,0.224,3,0.5v23C3,23.776,3.225,24,3.5,24h17
	c0.277,0,0.5-0.224,0.5-0.5v-17C21,6.367,20.947,6.24,20.854,6.146z M10.854,17.354l-2.5,2.5C8.256,19.951,8.129,20,8,20
	c-0.127,0-0.256-0.049-0.354-0.146l-1.5-1.5c-0.195-0.195-0.195-0.512,0-0.707s0.512-0.195,0.707,0L8,18.793l2.146-2.146
	c0.195-0.195,0.512-0.195,0.707,0S11.049,17.158,10.854,17.354z M10.854,12.854l-2.5,2.5C8.256,15.451,8.129,15.5,8,15.5
	c-0.127,0-0.256-0.049-0.354-0.146l-1.5-1.5c-0.195-0.195-0.195-0.512,0-0.707s0.512-0.195,0.707,0L8,14.293l2.146-2.146
	c0.195-0.195,0.512-0.195,0.707,0S11.049,12.658,10.854,12.854z M10.854,8.354l-2.5,2.5C8.256,10.951,8.129,11,8,11
	c-0.127,0-0.256-0.049-0.354-0.146l-1.5-1.5c-0.195-0.195-0.195-0.512,0-0.707s0.512-0.195,0.707,0L8,9.793l2.146-2.146
	c0.195-0.195,0.512-0.195,0.707,0S11.049,8.158,10.854,8.354z M16.5,19h-4c-0.275,0-0.5-0.224-0.5-0.5s0.225-0.5,0.5-0.5h4
	c0.277,0,0.5,0.224,0.5,0.5S16.777,19,16.5,19z M16.5,15h-4c-0.275,0-0.5-0.224-0.5-0.5s0.225-0.5,0.5-0.5h4
	c0.277,0,0.5,0.224,0.5,0.5S16.777,15,16.5,15z M16.5,11h-4c-0.275,0-0.5-0.224-0.5-0.5s0.225-0.5,0.5-0.5h4
	c0.277,0,0.5,0.224,0.5,0.5S16.777,11,16.5,11z M14.5,6.5v-6l6,6H14.5z"/>
</svg>
