<?xml version="1.0" encoding="utf-8"?>
<!-- Generator: Adobe Illustrator 17.1.0, SVG Export Plug-In . SVG Version: 6.00 Build 0)  -->
<!DOCTYPE svg PUBLIC "-//W3C//DTD SVG 1.1//EN" "http://www.w3.org/Graphics/SVG/1.1/DTD/svg11.dtd">
<svg version="1.1" id="Filled_Version" xmlns="http://www.w3.org/2000/svg" xmlns:xlink="http://www.w3.org/1999/xlink" x="0px"
	 y="0px" width="100%" height="100%" viewBox="0 0 24 24" enable-background="new 0 0 24 24" xml:space="preserve">
<path d="M23.966,5.748c-0.006-0.021-0.012-0.04-0.019-0.06c-0.027-0.081-0.061-0.159-0.107-0.229c0-0.003-0.002-0.006-0.004-0.008
	l-0.002-0.006l0,0l-1.992-2.998c-0.305-0.461-0.926-0.586-1.385-0.28c-0.461,0.305-0.586,0.926-0.281,1.386l0.963,1.449L17.999,5
	c-0.006,0-0.01,0-0.014,0c-3.027,0-4.299,1.91-5.32,3.445c-0.916,1.375-1.656,2.461-3.459,2.54c-0.07-0.003-0.139-0.009-0.213-0.009
	H8.991c-0.074,0-0.144,0.009-0.213,0.023H0.997c-0.553,0-1,0.447-1,1s0.447,1,1,1h7.998c0.004,0,0.01,0,0.014,0
	c0.102,0,0.197-0.008,0.295-0.012c1.734,0.119,2.457,1.202,3.357,2.555c1.025,1.537,2.299,3.451,5.336,3.457l3.111,0.002
	l-0.965,1.441c-0.309,0.459-0.186,1.08,0.273,1.388C20.589,21.945,20.782,22,20.974,22c0.322,0,0.639-0.156,0.832-0.443l2.002-2.992
	l0.002-0.002l0.002-0.003c0,0,0-0.002,0.002-0.004c0.047-0.071,0.082-0.15,0.109-0.233c0.008-0.02,0.014-0.039,0.02-0.06
	c0.021-0.081,0.037-0.166,0.037-0.254v-0.004l0,0c0-0.089-0.016-0.174-0.037-0.256c-0.006-0.021-0.012-0.041-0.02-0.062
	c-0.025-0.08-0.061-0.156-0.105-0.226c-0.002-0.003-0.002-0.008-0.004-0.011l-1.994-3.004c-0.307-0.461-0.928-0.587-1.387-0.28
	c-0.461,0.305-0.586,0.926-0.281,1.386l0.963,1.449L17.999,17c-1.967-0.004-2.719-1.135-3.672-2.566
	c-0.549-0.822-1.172-1.751-2.094-2.44c0.924-0.686,1.547-1.616,2.096-2.439C15.278,8.127,16.028,7,17.985,7c0.004,0,0.008,0,0.012,0
	l3.135,0.002l-0.967,1.441c-0.307,0.459-0.184,1.08,0.275,1.388C20.612,9.945,20.806,10,20.995,10c0.324,0,0.641-0.156,0.832-0.443
	l2.004-2.992l0.002-0.002V6.56c0.002-0.001,0.002-0.002,0.002-0.002c0.049-0.073,0.084-0.152,0.111-0.235
	c0.006-0.02,0.014-0.039,0.018-0.06c0.023-0.081,0.039-0.166,0.039-0.255V6.006V6.005C24.003,5.916,23.987,5.83,23.966,5.748z"/>
</svg>
